<?xml version="1.0" encoding="UTF-8"?><svg id="Layer_2" xmlns="http://www.w3.org/2000/svg" viewBox="0 0 853.86 381.77"><defs><style>.cls-1{fill:#fff;}</style></defs><g id="ph-logo"><path id="ph-logo-w2-y" class="cls-1" d="M777.89,372.59c-7.77,0-13.02-1.96-15.78-5.91-2.73-3.97-4.08-9.5-4.08-16.6,0-2.9,.07-5.75,.22-8.55,.18-2.83,.27-5.63,.27-8.39,0-8.72-1.58-17.51-4.74-26.38-3.13-8.85-6.99-17.56-11.58-26.09-4.61-8.57-9.26-16.89-13.96-24.94-4.68-8.08-8.59-15.64-11.75-22.68-3.14-7.02-4.69-13.27-4.69-18.76,0-2.57,1.21-4.58,3.64-6.02,2.43-1.46,5.37-2.55,8.83-3.26,3.45-.73,6.84-1.23,10.15-1.49,3.31-.25,5.86-.39,7.67-.39,2.23,0,4.69,.2,7.34,.6,2.67,.42,4.83,1.52,6.45,3.31,1.43,1.43,3.1,4.18,5.02,8.22,1.94,4.02,3.97,8.61,6.07,13.79,2.1,5.16,4.15,10.16,6.18,15.01,2.01,4.83,3.92,8.81,5.68,11.97,1.79,3.18,3.26,4.74,4.36,4.74,1.79,0,3.61-1.45,5.46-4.35,1.88-2.9,3.7-6.63,5.46-11.15,1.77-4.53,3.49-9.19,5.19-14.02,1.68-4.85,3.26-9.17,4.69-12.96,1.46-3.78,2.84-6.48,4.14-8.11,2.56-3.23,5.58-5.16,9.05-5.8,3.49-.66,7.17-.99,11.03-.99,2.76,0,6.14,.16,10.16,.49,4.04,.3,7.63,1.26,10.76,2.87,3.16,1.63,4.74,4.36,4.74,8.22,0,4.53-1.42,10.14-4.24,16.83-2.8,6.7-6.29,13.96-10.48,21.79-4.19,7.84-8.48,15.92-12.85,24.22-4.34,8.32-8.21,16.43-11.59,24.33-3.39,7.92-5.49,15.17-6.29,21.79-.2,2.25-.32,4.46-.39,6.63-.08,2.18-.11,4.4-.11,6.67,0,6.93-.17,12.69-.49,17.33-.33,4.6-1.35,8.19-3.04,10.76-1.69,2.58-4.6,4.44-8.71,5.57-4.13,1.1-10.04,1.66-17.77,1.66Z"/><path id="ph-logo-w2-e" class="cls-1" d="M620.09,321.99c0,8.58,4.44,12.85,13.35,12.85,6.58,0,13.26-.11,20.03-.33,6.8-.25,13.52-.39,20.14-.39,5.96,0,9.73,1.05,11.36,3.14,1.61,2.1,2.43,5.96,2.43,11.59,0,5.01-1.26,9.09-3.75,12.25-2.51,3.17-5.71,5.56-9.6,7.17-3.86,1.58-8.05,2.7-12.58,3.36-4.49,.64-8.69,.94-12.58,.94-8.54,0-17.53-.03-26.98-.11-9.42-.07-18.18-1.72-26.26-4.97-8.87-3.71-14.93-9.02-18.15-15.94-3.24-6.95-5.17-14.95-5.8-24-.33-5.96-.59-11.88-.77-17.77-.15-5.88-.22-11.82-.22-17.82,0-4.81-.04-9.6-.11-14.34-.08-4.77-.11-9.6-.11-14.45,0-15.3,1.68-27.15,5.08-35.53,3.38-8.41,8.41-14.43,15.11-18.04,6.69-3.64,15.01-5.86,24.94-6.68,9.93-.8,21.42-1.21,34.48-1.21,5.47,0,11.2,.74,17.16,2.21,5.98,1.43,10.92,4.25,14.78,8.44,2.28,2.43,3.77,5.3,4.47,8.6,.73,3.31,1.1,6.59,1.1,9.82,0,3.39-1.42,5.82-4.24,7.28-2.8,1.44-6.02,2.29-9.66,2.54-3.64,.22-6.68,.33-9.1,.33-4.02,0-8-.19-11.97-.61-3.94-.4-7.93-.6-11.97-.6-4.53,0-8.32,.21-11.36,.6-3.06,.42-5.33,1.7-6.79,3.86-1.44,2.18-2.16,6-2.16,11.47,0,3.91,1.33,6.73,3.97,8.5,2.65,1.77,5.79,2.91,9.44,3.42,3.64,.48,6.91,.72,9.82,.72,3.71,0,7.36-.13,10.98-.39,3.64-.25,7.24-.39,10.81-.39,3.05,0,6.18,.37,9.38,1.1,3.23,.74,5.82,2.4,7.78,4.96,1.28,1.63,2,3.89,2.15,6.79,.18,2.91,.28,5.34,.28,7.28,0,1.59-.17,3.28-.49,5.08-.33,1.77-.91,3.3-1.71,4.58-1.1,1.63-3.24,2.84-6.4,3.64-3.13,.81-6.67,1.35-10.65,1.6-3.94,.22-7.7,.31-11.26,.22-3.53-.07-6.28-.11-8.22-.11h-7.4c-2.98,0-5.85,.2-8.6,.6-2.73,.38-4.9,1.21-6.51,2.54-.82,.64-1.42,1.48-1.82,2.54-.41,1.03-.77,2.12-1.1,3.25h0c-.3,1.63-.49,3.31-.6,5.08-.08,1.77-.11,3.53-.11,5.3Z"/><path id="ph-logo-w2-n" class="cls-1" d="M544.64,279.68v18.65c0,2.73-.06,6.51-.17,11.36-.08,4.83-.32,10.09-.72,15.83-.41,5.74-1.05,11.35-1.93,16.83-.89,5.49-2.07,10.32-3.53,14.51-1.44,4.19-3.36,7.2-5.8,8.99-3.2,2.4-6.62,3.92-10.26,4.58-3.64,.64-7.47,.94-11.47,.94-1.63,0-3.24-.11-4.85-.33-1.63-.24-3.24-.69-4.86-1.32h0c-2.24-1.13-4.82-3.77-7.72-7.89-2.91-4.11-5.94-9.07-9.1-14.9-3.14-5.81-6.28-11.81-9.44-17.98-3.13-6.21-6.11-12.03-8.94-17.44-2.84-5.41-5.43-9.79-7.78-13.18-2.31-3.42-4.29-5.13-5.9-5.13-1.15,0-1.98,.94-2.54,2.81-.55,1.85-.97,4.01-1.21,6.51-.27,2.51-.43,4.9-.5,7.17-.08,2.24-.11,3.78-.11,4.58,0,6.48,.17,12.9,.49,19.26,.33,6.38,.5,12.79,.5,19.26,0,5.96-1.35,10.48-4.03,13.57-2.65,3.06-7.05,4.58-13.19,4.58-2.76,0-6.21-.3-10.32-.94-4.08-.66-7.17-1.96-9.27-3.92-2.29-2.28-4.16-6.26-5.63-11.97-1.44-5.73-2.57-12.36-3.36-19.86-.82-7.51-1.38-15.12-1.71-22.84-.3-7.75-.48-14.85-.55-21.3-.08-6.47-.11-11.32-.11-14.56s.07-7.46,.22-12.69c.14-5.26,.5-10.94,1.05-17.05,.58-6.14,1.52-12.08,2.81-17.82,1.28-5.74,3.05-10.65,5.3-14.73,2.28-4.11,5.2-6.81,8.77-8.11,2.72-.99,5.24-1.56,7.56-1.71,2.35-.18,4.83-.28,7.45-.28,4.81,0,9.32,1.82,13.52,5.46,4.19,3.65,8.05,8.31,11.58,13.96,3.56,5.63,6.87,11.65,9.93,18.04,3.09,6.38,5.92,12.39,8.49,18.04,2.57,5.63,5.04,10.27,7.4,13.91,2.34,3.61,4.58,5.41,6.68,5.41,1.77,0,3.05-1.45,3.86-4.36,.8-2.9,1.41-6.36,1.82-10.37,.4-4.04,.6-7.84,.6-11.37v-7.28c0-4.37-.14-8.69-.39-12.96-.22-4.27-.33-8.58-.33-12.97,0-4.81,.74-8.3,2.26-10.48,1.54-2.21,3.77-3.55,6.68-4.03,2.9-.47,6.37-.71,10.43-.71,2.39,0,5.31,.37,8.77,1.1,3.49,.7,6.04,1.96,7.67,3.75,2.72,2.58,4.89,6.98,6.51,13.19,1.61,6.22,2.79,13.07,3.53,20.58,.73,7.5,1.21,14.68,1.44,21.52,.24,6.84,.39,12.22,.39,16.11Z"/><g id="ph-logo-honeycomb"><path id="ph-logo-honeycomb-6" class="cls-1" d="M320.88,353.11h-95.11c-8.12,0-14.66,6.77-14.3,14.97,.34,7.73,7.01,13.68,14.75,13.68h94.23c7.74,0,14.41-5.95,14.75-13.68,.36-8.21-6.19-14.97-14.3-14.97Z"/><path id="ph-logo-honeycomb-5" class="cls-1" d="M344.41,314.11h-35.03s-.05,.02-.05,.05v6.16c0,6.44-5.24,11.69-11.68,11.69-.21,0-.42-.01-.63-.03-6.2-.32-11.07-5.64-11.07-12.13v-5.7s-.02-.05-.05-.05h-83.68c-8.13,0-14.68,6.77-14.32,14.97,.34,7.73,7.02,13.67,14.75,13.67h141.31c7.73,0,14.41-5.94,14.75-13.67,.36-8.2-6.19-14.97-14.32-14.97Z"/><path id="ph-logo-honeycomb-4" class="cls-1" d="M360.59,275.09h-51.21s-.05,.02-.05,.05v28.55s.02,.05,.05,.05h50.77c7.74,0,14.41-5.96,14.74-13.69,.35-8.21-6.19-14.96-14.3-14.96Z"/><path id="ph-logo-honeycomb-3" class="cls-1" d="M285.96,275.09h-25.27v6.22c0,6.44-5.26,11.68-11.7,11.68-.2,0-.41,0-.62-.01-6.2-.32-11.06-5.66-11.06-12.14v-5.75h-51.25c-7.91,0-14.32,6.41-14.32,14.33s6.41,14.31,14.32,14.31h99.9v-28.65Z"/><path id="ph-logo-honeycomb-2" class="cls-1" d="M202.23,264.73h30.47c4.53,0,8.18,3.66,8.18,8.17v7.94c0,4.4,3.3,8.33,7.68,8.57,.14,0,.29,.02,.43,.02,.24,0,.46-.06,.69-.07,.26-.03,.51-.04,.76-.08,.3-.05,.58-.14,.85-.22,.23-.07,.48-.14,.7-.22,.28-.11,.54-.27,.79-.4,.22-.11,.43-.21,.64-.33,.24-.16,.47-.35,.69-.55,.18-.14,.38-.28,.54-.44,.22-.21,.4-.46,.59-.69,.14-.17,.3-.33,.43-.51,.18-.26,.32-.55,.47-.84,.1-.18,.22-.36,.31-.55,.14-.33,.23-.68,.33-1.02,.06-.18,.13-.34,.17-.53,.11-.54,.17-1.09,.17-1.66v-8.36c0-4.54,3.68-8.21,8.21-8.21h16c4.54,0,8.22,3.68,8.22,8.22v46.91c0,4.39,3.29,8.33,7.67,8.55,.15,.02,.29,.02,.44,.02,.23,0,.45-.04,.69-.07,.25-.02,.51-.03,.76-.07,.29-.05,.56-.15,.85-.23,.23-.07,.48-.12,.7-.22,.28-.11,.52-.25,.79-.39,.21-.11,.43-.21,.64-.34,.23-.17,.45-.35,.69-.54,.18-.15,.38-.28,.54-.44,.22-.22,.4-.46,.58-.69,.15-.17,.3-.33,.44-.52,.18-.27,.32-.54,.47-.83,.1-.19,.22-.36,.31-.57,.14-.32,.23-.68,.33-1.02,.04-.18,.13-.33,.15-.51,.11-.54,.18-1.1,.18-1.67v-47.36c0-4.54,3.68-8.23,8.23-8.23h29.82c7.83,0,14.68-6.04,14.91-13.89,.25-8.11-6.26-14.76-14.32-14.76H202.83c-7.83,0-14.68,6.04-14.91,13.88-.25,8.11,6.26,14.77,14.32,14.77Z"/><path id="ph-logo-honeycomb-1" class="cls-1" d="M225.77,197.06h95.11c.94,0,1.86,.09,2.79,.28,.93,.19,1.82,.45,2.69,.81,.86,.38,1.69,.81,2.47,1.32,.79,.53,1.52,1.12,2.18,1.8,.66,.66,1.26,1.38,1.78,2.16,.52,.79,.96,1.6,1.32,2.47,.36,.87,.64,1.77,.81,2.69,.18,.92,.28,1.86,.28,2.8s-.09,1.88-.28,2.79c-.18,.93-.45,1.82-.81,2.69s-.8,1.7-1.32,2.48c-.53,.78-1.12,1.51-1.78,2.17s-1.39,1.26-2.18,1.78c-.78,.53-1.6,.96-2.47,1.32-.87,.36-1.77,.64-2.69,.81-.92,.19-1.85,.28-2.79,.28h-95.11c-.94,0-1.86-.08-2.79-.28-.93-.18-1.82-.45-2.69-.81-.86-.36-1.69-.8-2.47-1.32-.79-.53-1.52-1.12-2.18-1.78s-1.26-1.39-1.78-2.17c-.52-.78-.96-1.61-1.32-2.48s-.64-1.77-.81-2.69c-.18-.91-.28-1.84-.28-2.79s.09-1.88,.28-2.8c.18-.93,.45-1.82,.81-2.69,.36-.86,.8-1.68,1.32-2.47,.53-.79,1.12-1.5,1.78-2.16,.66-.68,1.39-1.27,2.18-1.8,.78-.51,1.6-.95,2.47-1.32,.87-.36,1.77-.62,2.69-.81,.92-.18,1.85-.28,2.79-.28Z"/></g><path id="ph-logo-w2-h" class="cls-1" d="M37.61,203.16c6.14,0,10.06,2.07,11.75,6.18,1.68,4.13,2.54,8.77,2.54,13.96,0,3.06-.17,6.07-.5,9.05-.33,2.98-.49,6.02-.49,9.1,0,6.44,.36,11.56,1.1,15.34,.73,3.79,2.66,6.49,5.79,8.11,3.16,1.63,8.29,2.43,15.4,2.43s12.74-1.35,16.94-4.08c4.19-2.76,6.29-8.08,6.29-16,0-4.53-.33-8.95-.99-13.3-.64-4.38-.94-8.83-.94-13.35,0-5.15,.89-9.34,2.65-12.58,1.77-3.23,5.47-4.85,11.15-4.85,1.94,0,4.55,.14,7.83,.39,3.31,.26,6.58,.76,9.82,1.49,3.23,.7,5.49,1.79,6.79,3.26,2.76,2.58,4.93,6.6,6.51,12.08,1.61,5.49,2.83,11.67,3.65,18.54,.8,6.84,1.38,13.78,1.71,20.8,.33,7.03,.49,13.61,.49,19.75v14.95c0,3.72-.09,8.6-.28,14.67-.15,6.04-.52,12.36-1.1,18.98-.55,6.62-1.31,12.8-2.26,18.54-.96,5.71-2.34,10.18-4.14,13.41-.64,1.14-1.38,2.29-2.27,3.42-.88,1.1-1.97,2.07-3.26,2.87-3.24,2.43-7.16,3.89-11.75,4.36-4.6,.48-8.85,.72-12.74,.72-4.19,0-7.27-1.6-9.21-4.8-1.92-3.22-3.11-6.98-3.59-11.26-.48-4.3-.71-7.97-.71-11.03,0-4.33,.19-8.68,.6-13.02,.4-4.38,.61-8.74,.61-13.13,0-4.99-1.1-8.58-3.31-10.76-2.18-2.17-4.99-3.53-8.44-4.08-3.46-.58-7.21-.88-11.25-.88-8.06,0-13.74,1.82-17.05,5.46-3.31,3.64-4.96,9.49-4.96,17.55,0,4.05,.23,8.21,.72,12.47,.47,4.28,.71,8.59,.71,12.96,0,3.68-.24,7.1-.71,10.27-.48,3.17-1.74,5.67-3.76,7.5-2.03,1.85-5.38,2.76-10.04,2.76-2.91,0-6.18-.11-9.82-.33-3.64-.24-6.83-.94-9.55-2.04-3.24-1.32-5.9-4.28-8-8.88-2.09-4.59-3.72-10.04-4.85-16.33-1.1-6.29-1.92-12.77-2.43-19.47-.48-6.69-.76-12.81-.83-18.37-.08-5.59-.11-9.91-.11-12.97,0-4.33,.03-10.13,.11-17.38,.07-7.28,.34-14.95,.83-23.01,.51-8.08,1.24-15.58,2.21-22.51,.95-6.95,2.4-12.11,4.36-15.51,.8-1.28,1.65-2.49,2.54-3.64,.88-1.13,1.89-2.11,3.03-2.92,3.23-2.43,6.9-3.83,10.98-4.25,4.11-.4,8.19-.6,12.25-.6Z"/><path id="ph-logo-w1-e" class="cls-1" d="M781.59,122.7c0,8.58,4.44,12.86,13.35,12.86,6.58,0,13.26-.11,20.03-.33,6.8-.25,13.52-.39,20.14-.39,5.96,0,9.73,1.05,11.36,3.15,1.61,2.09,2.43,5.96,2.43,11.58,0,5.01-1.26,9.09-3.75,12.25-2.51,3.17-5.71,5.56-9.6,7.17-3.86,1.58-8.06,2.7-12.58,3.36-4.49,.64-8.69,.94-12.58,.94-8.54,0-17.53-.03-26.98-.11-9.42-.07-18.18-1.72-26.26-4.96-8.87-3.71-14.93-9.02-18.15-15.95-3.24-6.95-5.17-14.95-5.79-24-.33-5.96-.59-11.88-.78-17.77-.15-5.88-.22-11.82-.22-17.82,0-4.81-.04-9.6-.11-14.34-.08-4.78-.11-9.6-.11-14.46,0-15.3,1.69-27.15,5.08-35.53,3.38-8.41,8.41-14.43,15.12-18.04,6.69-3.64,15.01-5.86,24.94-6.67,9.93-.8,21.42-1.21,34.48-1.21,5.48,0,11.2,.74,17.16,2.2,5.98,1.44,10.92,4.25,14.79,8.44,2.28,2.43,3.77,5.3,4.47,8.61,.73,3.31,1.1,6.59,1.1,9.82,0,3.4-1.42,5.82-4.24,7.28-2.8,1.44-6.02,2.29-9.66,2.54-3.64,.22-6.68,.33-9.1,.33-4.01,0-8-.19-11.97-.6-3.94-.4-7.93-.61-11.97-.61-4.53,0-8.32,.21-11.36,.61-3.06,.41-5.33,1.69-6.79,3.86-1.44,2.18-2.15,6-2.15,11.48,0,3.9,1.32,6.73,3.97,8.49,2.65,1.77,5.8,2.91,9.44,3.42,3.64,.48,6.91,.71,9.82,.71,3.71,0,7.36-.12,10.98-.39,3.64-.24,7.24-.39,10.81-.39,3.05,0,6.18,.38,9.38,1.1,3.23,.74,5.82,2.4,7.78,4.96,1.28,1.63,2,3.89,2.15,6.79,.18,2.91,.28,5.34,.28,7.29,0,1.58-.17,3.28-.49,5.07-.33,1.77-.91,3.3-1.71,4.58-1.1,1.63-3.24,2.84-6.4,3.64-3.13,.82-6.67,1.35-10.65,1.6-3.94,.22-7.7,.3-11.26,.22-3.53-.07-6.28-.11-8.22-.11h-7.4c-2.98,0-5.85,.21-8.6,.6-2.73,.38-4.9,1.21-6.51,2.54-.82,.63-1.42,1.47-1.82,2.54-.41,1.04-.77,2.12-1.1,3.25h0c-.3,1.63-.49,3.31-.6,5.08-.08,1.77-.11,3.53-.11,5.3Z"/><path id="ph-logo-w1-l" class="cls-1" d="M646.83,86.18c0,3.06,.03,6.81,.11,11.26,.07,4.45,.41,8.98,1.05,13.57,.66,4.6,1.83,8.76,3.53,12.47,1.68,3.72,4.15,6.45,7.39,8.22,2.28,1.15,4.7,1.92,7.28,2.32,2.57,.37,5.15,.55,7.72,.55,5.66,0,11.2-.07,16.61-.22,5.39-.14,10.81-.22,16.28-.22,6.27,0,11.41,5.08,11.41,11.34,0,3.07-.33,6.22-.99,9.46-.64,3.24-2.08,5.98-4.36,8.22-3.68,4.06-8.36,6.76-14.01,8.11-5.67,1.36-11.08,2.04-16.22,2.04-5.49,0-11.94,.06-19.36,.17-7.43,.08-14.9-.29-22.4-1.1-7.5-.8-14.44-2.45-20.8-4.96-6.38-2.5-11.34-6.34-14.9-11.53-2.58-3.67-4.44-7.61-5.57-11.81-1.1-4.22-1.82-8.51-2.15-12.85-.48-6.43-.82-12.87-.99-19.31-.15-6.47-.22-12.94-.22-19.42,0-3.22,.03-7.56,.11-12.96,.07-5.41,.22-11.26,.44-17.55,.25-6.29,.63-12.54,1.1-18.76,.51-6.21,1.24-11.82,2.21-16.83,.95-4.99,2.17-8.79,3.64-11.36,2.9-5.15,6.62-8.36,11.15-9.66,4.53-1.28,9.52-1.93,15.01-1.93,4.53,0,8.03,1.66,10.54,4.97,2.49,3.31,4.3,7.47,5.41,12.47,1.13,5.01,1.88,9.93,2.2,14.79,.33,4.82,.5,8.85,.5,12.08,0,4.35-.1,8.71-.28,13.08-.15,4.34-.39,8.69-.72,13.02-.15,2.1-.32,4.17-.49,6.18-.15,2.03-.22,4.08-.22,6.18Z"/><path id="ph-logo-w1-p2" class="cls-1" d="M452.02,100.19v-26.09c0-3.09,.07-7.13,.22-12.14,.18-4.99,.51-10.4,.99-16.22,.47-5.81,1.27-11.45,2.38-16.94,1.13-5.47,2.72-10.28,4.74-14.4,2.02-4.11,4.55-6.96,7.61-8.55,3.42-1.61,8.07-2.83,13.96-3.64,5.88-.8,11.88-1.32,17.98-1.54,6.14-.25,11.16-.39,15.06-.39,9.19,0,18.26,1.3,27.2,3.86,8.97,2.58,17.08,6.45,24.33,11.64,7.24,5.16,13.04,11.61,17.38,19.36,4.37,7.72,6.56,16.76,6.56,27.09,0,11.3-2.03,20.5-6.07,27.59-4.02,7.1-9.21,12.72-15.61,16.83-6.37,4.13-13.17,7.06-20.41,8.83-7.26,1.77-14.23,2.95-20.97,3.53-6.7,.55-12.3,.92-16.82,1.1-4.49,.15-7.14,.63-7.94,1.43h0c-.66,.78-1.2,2.27-1.6,4.47-.41,2.18-.65,4.44-.72,6.79-.08,2.32-.11,4.05-.11,5.19,0,3.06,.11,6.09,.33,9.1,.24,2.98,.39,6,.39,9.05,0,5.16-.94,9.1-2.81,11.86-1.85,2.73-5.57,4.08-11.2,4.08-3.09,0-6.29-.14-9.6-.44-3.31-.33-6.43-1.06-9.32-2.2-3.06-1.29-5.56-3.99-7.51-8.11-1.92-4.11-3.47-9.02-4.69-14.73-1.21-5.74-2.07-11.61-2.54-17.66-.48-6.07-.81-11.67-.99-16.82-.15-5.19-.22-9.16-.22-11.92Zm48.17-54.45v28.08c0,6.29,1.16,10.18,3.47,11.64,2.35,1.44,6.43,2.15,12.25,2.15,8.57,0,15.56-2.73,20.96-8.22,5.41-5.47,8.11-12.42,8.11-20.8,0-5.32-1.59-9.68-4.74-13.07-3.17-3.38-7.05-5.92-11.64-7.61-4.61-1.68-9.24-2.54-13.91-2.54h-6.07c-3.4,0-5.61,1.05-6.68,3.14-1.04,2.1-1.63,4.51-1.77,7.23Z"/><path id="ph-logo-w1-r" class="cls-1" d="M349.2,151.99c0,3.72-.26,7.12-.77,10.21-.48,3.06-1.73,5.46-3.75,7.23-1.98,1.77-5.24,2.65-9.77,2.65-3.06,0-6.21-.14-9.44-.44-3.24-.33-6.31-1.06-9.21-2.2-3.39-1.44-6.12-4.76-8.22-9.99-2.09-5.26-3.68-11.56-4.74-18.92-1.04-7.35-1.75-14.85-2.15-22.51-.41-7.64-.61-14.65-.61-21.02v-14.45c0-8.39,.23-16.78,.72-25.16,.47-8.39,1.35-16.69,2.65-24.94,.66-3.38,1.71-7.47,3.14-12.3,1.46-4.85,3.49-8.41,6.07-10.7,2.76-2.23,6.58-4,11.47-5.3,4.92-1.28,10.26-2.21,16-2.76,5.74-.58,11.26-.95,16.55-1.1,5.32-.18,9.78-.27,13.35-.27,8.23,0,16.35,1.21,24.33,3.64,7.97,2.43,15.28,6.04,21.9,10.81,6.62,4.74,11.89,10.59,15.84,17.54,3.97,6.93,5.96,14.9,5.96,23.95,0,3.06-.33,6.13-.99,9.21-.66,3.06-1.88,5.94-3.64,8.66-2.58,4.19-5.61,8.04-9.1,11.53s-7.28,6.56-11.47,9.32h0c-.49,.16-1.37,.72-2.65,1.72-1.3,.96-1.93,1.75-1.93,2.37,0,.48,.55,1.42,1.66,2.81,1.13,1.36,2.39,2.69,3.75,3.97,1.39,1.3,2.33,2.18,2.82,2.64h0c1.77,1.96,3.72,5.36,5.9,10.21,2.21,4.83,4.3,10.14,6.29,15.95,2.01,5.82,3.67,11.31,4.96,16.49,1.32,5.16,1.98,9.09,1.98,11.81,0,2.09-1.31,3.81-3.92,5.13-2.58,1.3-5.68,2.26-9.32,2.92-3.61,.64-7.1,1.08-10.48,1.33-3.39,.22-5.82,.33-7.28,.33-5.16,0-9.1-1.41-11.86-4.25-2.73-2.82-4.79-6.45-6.18-10.86-1.36-4.44-2.62-9.21-3.75-14.29-1.1-5.08-2.64-9.83-4.58-14.29-1.96-4.44-4.79-8.07-8.5-10.86-3.72-2.83-8.96-4.25-15.72-4.25-1.92,0-3.33,1.42-4.24,4.25-.89,2.8-1.41,5.84-1.55,9.16-.15,3.31-.22,5.71-.22,7.17,0,2.91,.11,5.85,.33,8.83,.25,2.98,.39,6,.39,9.05Zm-.49-104.55v20.8c0,2.29,.3,4.8,.94,7.56,.66,2.73,2.51,4.08,5.57,4.08,5.98,0,11.56-.47,16.72-1.43,5.15-.99,9.38-3.15,12.69-6.46,3.31-3.31,4.97-8.58,4.97-15.83,0-4.33-1.21-8.03-3.65-11.09-2.4-3.09-5.49-5.47-9.27-7.17-3.79-1.68-7.64-2.54-11.53-2.54h-7.01c-3.72,0-6.22,1.21-7.51,3.64-1.3,2.4-1.93,5.21-1.93,8.44Z"/><path id="ph-logo-w1-u" class="cls-1" d="M175.17,3.64c1.79,0,3.61,.16,5.46,.49,1.88,.33,3.53,.91,4.96,1.71,1.61,.97,2.77,2.25,3.47,3.86,.73,1.63,1.27,3.31,1.6,5.07,1.28,6.44,2.04,13.06,2.26,19.86,.25,6.77,.39,13.46,.39,20.08,0,9.02-.28,18.04-.83,27.09s-.83,18.08-.83,27.09c0,5.19,.47,10.04,1.44,14.57,.95,4.49,2.95,8.11,6.01,10.87,3.09,2.76,7.7,4.14,13.85,4.14,9.05,0,15.26-2.26,18.65-6.79,3.38-4.53,5.07-10.98,5.07-19.36,0-13.24-.14-26.39-.39-39.45-.22-13.09-.33-26.23-.33-39.45,0-4.19,.07-8.55,.22-13.08,.14-4.52,1.27-8.34,3.36-11.47,2.1-3.16,6.04-4.74,11.86-4.74,4.2,0,8.35,.25,12.47,.72,4.11,.48,7.86,2.09,11.25,4.85,2.57,2.09,4.58,5.82,6.02,11.15,1.46,5.3,2.54,11.26,3.2,17.88,.66,6.62,1.06,12.88,1.21,18.76,.14,5.89,.22,10.46,.22,13.69,0,6.29-.04,12.58-.11,18.86-.08,6.29-.11,12.58-.11,18.87,0,4.72-.44,9.41-1.33,14.07-.88,4.68-2.37,9.2-4.47,13.57-6,12.73-15.09,22.5-27.26,29.3-12.18,6.77-25.2,10.15-39.06,10.15-13.1,0-25.05-2.73-35.86-8.22-10.81-5.52-19.46-13.27-25.93-23.28-6.44-10-9.73-21.77-9.88-35.31,0-4.53-.04-8.95-.11-13.3-.08-4.37-.11-8.83-.11-13.35,0-2.9,.03-6.86,.11-11.86,.07-4.99,.28-10.4,.61-16.22,.33-5.81,.77-11.56,1.32-17.27,.55-5.73,1.34-10.87,2.37-15.39,1.06-4.53,2.4-7.83,4.03-9.93,2.76-3.53,6.63-5.77,11.64-6.73,4.99-.99,9.5-1.49,13.52-1.49Z"/><path id="ph-logo-w1-p1" class="cls-1" d="M0,100.19v-26.09c0-3.09,.07-7.13,.22-12.14,.18-4.99,.51-10.4,.99-16.22,.47-5.81,1.27-11.45,2.38-16.94,1.13-5.47,2.71-10.28,4.74-14.4,2.01-4.11,4.55-6.96,7.61-8.55,3.42-1.61,8.07-2.83,13.96-3.64,5.88-.8,11.88-1.32,17.98-1.54,6.14-.25,11.16-.39,15.06-.39,9.19,0,18.26,1.3,27.2,3.86,8.97,2.58,17.08,6.45,24.33,11.64,7.24,5.16,13.03,11.61,17.38,19.36,4.38,7.72,6.57,16.76,6.57,27.09,0,11.3-2.03,20.5-6.07,27.59-4.02,7.1-9.21,12.72-15.61,16.83-6.38,4.13-13.17,7.06-20.41,8.83-7.26,1.77-14.23,2.95-20.97,3.53-6.7,.55-12.3,.92-16.83,1.1-4.49,.15-7.13,.63-7.94,1.43h0c-.66,.78-1.2,2.27-1.6,4.47-.42,2.18-.65,4.44-.72,6.79-.08,2.32-.11,4.05-.11,5.19,0,3.06,.11,6.09,.33,9.1,.25,2.98,.39,6,.39,9.05,0,5.16-.94,9.1-2.82,11.86-1.85,2.73-5.57,4.08-11.2,4.08-3.09,0-6.29-.14-9.6-.44-3.31-.33-6.43-1.06-9.32-2.2-3.06-1.29-5.56-3.99-7.51-8.11-1.92-4.11-3.47-9.02-4.69-14.73-1.21-5.74-2.07-11.61-2.54-17.66-.48-6.07-.81-11.67-.99-16.82-.16-5.19-.22-9.16-.22-11.92ZM48.17,45.73v28.08c0,6.29,1.16,10.18,3.47,11.64,2.34,1.44,6.43,2.15,12.25,2.15,8.56,0,15.56-2.73,20.96-8.22,5.41-5.47,8.11-12.42,8.11-20.8,0-5.32-1.58-9.68-4.74-13.07-3.17-3.38-7.05-5.92-11.64-7.61-4.6-1.68-9.24-2.54-13.9-2.54h-6.07c-3.4,0-5.61,1.05-6.68,3.14-1.04,2.1-1.63,4.51-1.77,7.23Z"/></g></svg>