<?xml version="1.0" encoding="UTF-8"?><svg id="Layer_2" xmlns="http://www.w3.org/2000/svg" viewBox="0 0 973.28 32.83"><defs><style>.cls-1{fill:#fff;}</style></defs><g id="ph-tagline"><g id="ph-tagline-s2"><path id="ph-tagline-s2-dot" class="cls-1" d="M968.12,32.83c-1.41,0-2.62-.5-3.62-1.51s-1.51-2.22-1.51-3.62,.5-2.64,1.51-3.65,2.22-1.51,3.62-1.51,2.64,.5,3.65,1.51,1.51,2.22,1.51,3.65-.5,2.62-1.51,3.62-2.22,1.51-3.65,1.51Z"/><path id="ph-tagline-s2-w2-s" class="cls-1" d="M947.6,0c2.05,0,3.87,.22,5.46,.66,1.59,.44,2.88,.91,3.86,1.4s1.59,.83,1.81,1.01l-4.39,7.44c-.26-.19-.7-.46-1.33-.8s-1.34-.65-2.12-.92c-.78-.27-1.54-.41-2.26-.41-.85,0-1.55,.12-2.11,.35-.56,.23-.84,.63-.84,1.19,0,.38,.15,.74,.46,1.06,.3,.32,.82,.65,1.55,.98,.73,.34,1.72,.72,2.99,1.15,1.23,.4,2.36,.9,3.38,1.49,1.02,.59,1.91,1.3,2.65,2.11s1.32,1.75,1.74,2.81c.42,1.06,.62,2.25,.62,3.58,0,1.76-.36,3.26-1.09,4.5-.73,1.24-1.7,2.24-2.92,3.01-1.22,.77-2.57,1.33-4.07,1.69-1.5,.36-3.01,.54-4.55,.54-2.35,0-4.44-.26-6.28-.77-1.83-.51-3.31-1.07-4.44-1.67-1.13-.6-1.82-1.03-2.08-1.28l4.54-7.75c.18,.14,.56,.38,1.14,.7,.58,.32,1.29,.66,2.11,1.01,.82,.35,1.68,.65,2.56,.9,.88,.25,1.7,.37,2.45,.37,1.01,0,1.75-.14,2.23-.43,.48-.29,.72-.7,.72-1.25,0-.38-.15-.74-.44-1.08-.3-.34-.82-.69-1.58-1.07-.76-.38-1.84-.81-3.23-1.31-1.34-.5-2.62-1.14-3.84-1.94-1.22-.8-2.21-1.84-2.98-3.12-.77-1.28-1.15-2.88-1.15-4.8s.54-3.62,1.63-5.02,2.5-2.46,4.25-3.2c1.74-.74,3.59-1.12,5.54-1.12Z"/><path id="ph-tagline-s2-w2-n" class="cls-1" d="M907.28,9.02l.7,.12v23.11h-9.29V.58h12.55l10.34,23.04-.7,.14V.58h9.29v31.68h-12.62l-10.27-23.23Z"/><path id="ph-tagline-s2-w2-r2" class="cls-1" d="M868.83,.58h14.21c1.92,0,3.62,.4,5.09,1.21s2.62,1.96,3.46,3.46c.83,1.5,1.25,3.27,1.25,5.32s-.33,3.68-1,4.93c-.66,1.26-1.46,2.2-2.39,2.82-.93,.62-1.78,1.02-2.57,1.2l7.58,12.74h-10.42l-6.53-12.02h.62v12.02h-9.31V.58Zm9.31,13.37h1.54c.85,0,1.66-.2,2.44-.6,.78-.4,1.16-1.22,1.16-2.47s-.38-2.07-1.13-2.47c-.75-.4-1.55-.6-2.4-.6h-1.61v6.14Z"/><path id="ph-tagline-s2-w2-u" class="cls-1" d="M855.3,.58h9.29V19.9c0,2.61-.5,4.88-1.51,6.82-1.01,1.94-2.49,3.44-4.45,4.51-1.96,1.07-4.37,1.61-7.24,1.61s-5.28-.54-7.26-1.61c-1.98-1.07-3.47-2.58-4.48-4.51-1.01-1.94-1.51-4.21-1.51-6.82V.58h9.29V19.39c0,1.17,.14,2.12,.43,2.87s.72,1.29,1.31,1.64,1.32,.53,2.22,.53,1.61-.18,2.18-.53,1.01-.9,1.3-1.64,.43-1.7,.43-2.87V.58Z"/><path id="ph-tagline-s2-w2-t" class="cls-1" d="M818.46,8.64h-6.84V.58h22.97V8.64h-6.84v23.62h-9.29V8.64Z"/><path id="ph-tagline-s2-w2-e" class="cls-1" d="M787.04,.58h21.26V8.64h-11.98v3.84h11.98v7.8h-11.98v3.91h11.98v8.06h-21.26V.58Z"/><path id="ph-tagline-s2-w2-r1" class="cls-1" d="M757.19,.58h14.21c1.92,0,3.62,.4,5.09,1.21s2.62,1.96,3.46,3.46c.83,1.5,1.25,3.27,1.25,5.32s-.33,3.68-1,4.93c-.66,1.26-1.46,2.2-2.39,2.82-.93,.62-1.78,1.02-2.57,1.2l7.58,12.74h-10.42l-6.53-12.02h.62v12.02h-9.31V.58Zm9.31,13.37h1.54c.85,0,1.66-.2,2.44-.6,.78-.4,1.16-1.22,1.16-2.47s-.38-2.07-1.13-2.47c-.75-.4-1.55-.6-2.4-.6h-1.61v6.14Z"/><path id="ph-tagline-s2-w1-t" class="cls-1" d="M724.62,8.64h-6.84V.58h22.97V8.64h-6.84v23.62h-9.29V8.64Z"/><path id="ph-tagline-s2-w1-e2" class="cls-1" d="M693.21,.58h21.26V8.64h-11.98v3.84h11.98v7.8h-11.98v3.91h11.98v8.06h-21.26V.58Z"/><path id="ph-tagline-s2-w1-e1" class="cls-1" d="M667.24,.58h21.26V8.64h-11.98v3.84h11.98v7.8h-11.98v3.91h11.98v8.06h-21.26V.58Z"/><path id="ph-tagline-s2-w1-w" class="cls-1" d="M655.94,32.26h-11.02l-4.42-18.77h1.61l-4.44,18.77h-11.06l-7.63-31.68h10.7l3.12,19.39h-.12l5.33-19.39h6.58l5.33,19.39h-.12l3.12-19.39h10.7l-7.68,31.68Z"/><path id="ph-tagline-s2-w1-s" class="cls-1" d="M605.08,0c2.05,0,3.87,.22,5.46,.66,1.59,.44,2.88,.91,3.86,1.4s1.59,.83,1.81,1.01l-4.39,7.44c-.26-.19-.7-.46-1.33-.8s-1.34-.65-2.12-.92c-.78-.27-1.54-.41-2.26-.41-.85,0-1.55,.12-2.11,.35-.56,.23-.84,.63-.84,1.19,0,.38,.15,.74,.46,1.06,.3,.32,.82,.65,1.55,.98,.73,.34,1.72,.72,2.99,1.15,1.23,.4,2.36,.9,3.38,1.49,1.02,.59,1.91,1.3,2.65,2.11s1.32,1.75,1.74,2.81c.42,1.06,.62,2.25,.62,3.58,0,1.76-.36,3.26-1.09,4.5-.73,1.24-1.7,2.24-2.92,3.01-1.22,.77-2.57,1.33-4.07,1.69-1.5,.36-3.01,.54-4.55,.54-2.35,0-4.44-.26-6.28-.77-1.83-.51-3.31-1.07-4.44-1.67-1.13-.6-1.82-1.03-2.08-1.28l4.54-7.75c.18,.14,.56,.38,1.14,.7,.58,.32,1.29,.66,2.11,1.01,.82,.35,1.68,.65,2.56,.9,.88,.25,1.7,.37,2.45,.37,1.01,0,1.75-.14,2.23-.43,.48-.29,.72-.7,.72-1.25,0-.38-.15-.74-.44-1.08-.3-.34-.82-.69-1.58-1.07-.76-.38-1.84-.81-3.23-1.31-1.34-.5-2.62-1.14-3.84-1.94-1.22-.8-2.21-1.84-2.98-3.12-.77-1.28-1.15-2.88-1.15-4.8s.54-3.62,1.63-5.02,2.5-2.46,4.25-3.2c1.74-.74,3.59-1.12,5.54-1.12Z"/></g><g id="ph-tagline-s1"><path id="ph-tagline-s1-dot" class="cls-1" d="M570.09,32.83c-1.41,0-2.62-.5-3.62-1.51s-1.51-2.22-1.51-3.62,.5-2.64,1.51-3.65,2.22-1.51,3.62-1.51,2.64,.5,3.65,1.51,1.51,2.22,1.51,3.65-.5,2.62-1.51,3.62-2.22,1.51-3.65,1.51Z"/><path id="ph-tagline-s1-w2-n" class="cls-1" d="M479.85,9.02l.7,.12v23.11h-9.29V.58h12.55l10.34,23.04-.7,.14V.58h9.29v31.68h-12.62l-10.27-23.23Z"/><path id="ph-tagline-s1-w2-e2" class="cls-1" d="M538.79,.58h21.26V8.64h-11.98v3.84h11.98v7.8h-11.98v3.91h11.98v8.06h-21.26V.58Z"/><path id="ph-tagline-s1-w2-c" class="cls-1" d="M525.19,23.62c1.12,0,2.2-.18,3.25-.53,1.05-.35,1.86-.7,2.44-1.06l3.96,7.87c-.77,.64-2.07,1.29-3.91,1.94-1.84,.66-4.01,.98-6.5,.98-2.34,0-4.54-.4-6.62-1.21s-3.92-1.95-5.53-3.42c-1.61-1.47-2.87-3.2-3.78-5.2s-1.37-4.17-1.37-6.54,.46-4.56,1.37-6.56c.91-2.01,2.17-3.75,3.77-5.23s3.44-2.63,5.53-3.44c2.09-.82,4.3-1.22,6.64-1.22,2.5,0,4.66,.33,6.5,.98,1.84,.66,3.14,1.3,3.91,1.94l-3.96,7.87c-.58-.35-1.39-.7-2.44-1.06-1.05-.35-2.13-.53-3.25-.53-1.52,0-2.79,.22-3.82,.65-1.02,.43-1.84,1-2.46,1.72-.62,.71-1.06,1.49-1.32,2.33-.26,.84-.4,1.67-.4,2.48s.13,1.67,.4,2.52c.26,.85,.7,1.63,1.32,2.34,.62,.71,1.44,1.28,2.46,1.72,1.02,.43,2.3,.65,3.82,.65Z"/><path id="ph-tagline-s1-w2-a" class="cls-1" d="M447.19,.58h9.1l13.06,31.68h-9.91l-2.02-5.5h-11.3l-2.04,5.5h-9.94L447.19,.58Zm2.04,18.12h5.06l-2.5-6.98h-.07l-2.5,6.98Z"/><path id="ph-tagline-s1-w2-m" class="cls-1" d="M431.44,.58v31.68h-9.29v-15.74l.38-6.53-1.46,7.61-3.72,11.59h-9.1l-3.7-11.59-1.46-7.61,.38,6.53v15.74h-9.29V.58h13.3l4.8,18.55,.53,3.14,.53-3.14,4.8-18.55h13.3Z"/><path id="ph-tagline-s1-w2-r2" class="cls-1" d="M364.34,.58h14.21c1.92,0,3.62,.4,5.09,1.21s2.62,1.96,3.46,3.46c.83,1.5,1.25,3.27,1.25,5.32s-.33,3.68-1,4.93c-.66,1.26-1.46,2.2-2.39,2.82-.93,.62-1.78,1.02-2.57,1.2l7.58,12.74h-10.42l-6.53-12.02h.62v12.02h-9.31V.58Zm9.31,13.37h1.54c.85,0,1.66-.2,2.44-.6,.78-.4,1.16-1.22,1.16-2.47s-.38-2.07-1.13-2.47c-.75-.4-1.55-.6-2.4-.6h-1.61v6.14Z"/><path id="ph-tagline-s1-w2-o" class="cls-1" d="M327.67,16.39c0-2.3,.42-4.45,1.26-6.44,.84-1.99,2.01-3.73,3.52-5.22,1.5-1.49,3.27-2.65,5.29-3.48,2.02-.83,4.21-1.25,6.56-1.25s4.61,.42,6.64,1.25c2.02,.83,3.78,1.99,5.28,3.48,1.5,1.49,2.66,3.23,3.48,5.22,.82,1.99,1.24,4.14,1.24,6.44s-.4,4.48-1.2,6.47c-.8,1.99-1.94,3.74-3.42,5.23-1.48,1.5-3.24,2.66-5.27,3.49-2.03,.83-4.28,1.25-6.74,1.25s-4.81-.42-6.85-1.25-3.79-2-5.24-3.49c-1.46-1.5-2.58-3.24-3.36-5.23-.78-1.99-1.18-4.15-1.18-6.47Zm9.7,0c0,1.42,.29,2.72,.86,3.9,.58,1.18,1.38,2.11,2.42,2.81,1.04,.7,2.26,1.04,3.65,1.04s2.63-.35,3.67-1.04c1.04-.7,1.85-1.63,2.42-2.81,.58-1.18,.86-2.48,.86-3.9s-.29-2.72-.86-3.89c-.58-1.17-1.38-2.1-2.42-2.81-1.04-.7-2.26-1.06-3.67-1.06s-2.61,.35-3.65,1.06c-1.04,.7-1.85,1.64-2.42,2.81-.58,1.17-.86,2.46-.86,3.89Z"/><path id="ph-tagline-s1-w2-f" class="cls-1" d="M304.75,.58h19.56V8.64h-10.25v3.72h9.41v8.04h-9.41v11.86h-9.31V.58Z"/><path id="ph-tagline-s1-w2-r1" class="cls-1" d="M274.56,.58h14.21c1.92,0,3.62,.4,5.09,1.21s2.62,1.96,3.46,3.46c.83,1.5,1.25,3.27,1.25,5.32s-.33,3.68-1,4.93c-.66,1.26-1.46,2.2-2.39,2.82-.93,.62-1.78,1.02-2.57,1.2l7.58,12.74h-10.42l-6.53-12.02h.62v12.02h-9.31V.58Zm9.31,13.37h1.54c.85,0,1.66-.2,2.44-.6,.78-.4,1.16-1.22,1.16-2.47s-.38-2.07-1.13-2.47c-.75-.4-1.55-.6-2.4-.6h-1.61v6.14Z"/><path id="ph-tagline-s1-w2-e1" class="cls-1" d="M248.83,.58h21.26V8.64h-11.98v3.84h11.98v7.8h-11.98v3.91h11.98v8.06h-21.26V.58Z"/><path id="ph-tagline-s1-w2-p" class="cls-1" d="M221.06,.58h13.27c2.06,0,3.93,.38,5.59,1.14,1.66,.76,2.99,1.88,3.97,3.37,.98,1.49,1.48,3.31,1.48,5.47s-.49,4.02-1.48,5.58c-.98,1.56-2.31,2.76-3.97,3.6-1.66,.84-3.53,1.26-5.59,1.26h-3.98v11.26h-9.29V.58Zm9.29,13.2h1.39c.7,0,1.33-.1,1.88-.3,.55-.2,.99-.52,1.31-.96,.32-.44,.48-1.01,.48-1.72s-.16-1.28-.48-1.72c-.32-.44-.76-.76-1.31-.97-.55-.21-1.18-.31-1.88-.31h-1.39v5.98Z"/><path id="ph-tagline-s1-w1-g" class="cls-1" d="M187.99,14.21h16.25v2.18c0,2.32-.38,4.48-1.13,6.47s-1.84,3.74-3.25,5.23c-1.42,1.5-3.12,2.66-5.1,3.49s-4.21,1.25-6.67,1.25-4.84-.42-6.88-1.25-3.79-2-5.24-3.49c-1.46-1.5-2.57-3.24-3.35-5.23-.78-1.99-1.16-4.15-1.16-6.47s.39-4.45,1.16-6.44c.78-1.99,1.89-3.73,3.35-5.22,1.46-1.49,3.2-2.65,5.24-3.48s4.33-1.25,6.88-1.25c2.3,0,4.3,.25,5.98,.74,1.68,.5,3.1,1.14,4.25,1.93s2.1,1.64,2.83,2.54c.74,.9,1.32,1.76,1.75,2.56l-8.93,4.03c-.45-.77-1.11-1.49-1.98-2.16s-2.17-1.01-3.9-1.01c-1.04,0-1.99,.2-2.84,.61-.86,.41-1.59,.97-2.2,1.68-.61,.71-1.08,1.54-1.4,2.47-.33,.94-.49,1.93-.49,2.99s.16,2.08,.49,3.01c.33,.94,.8,1.76,1.4,2.47,.61,.71,1.34,1.27,2.2,1.67,.86,.4,1.8,.6,2.84,.6,.83,0,1.58-.06,2.24-.18,.66-.12,1.23-.3,1.7-.55,.47-.25,.85-.56,1.13-.94,.28-.38,.46-.81,.54-1.31h-5.71v-6.96Z"/><path id="ph-tagline-s1-w1-n" class="cls-1" d="M144.48,9.02l.7,.12v23.11h-9.29V.58h12.55l10.34,23.04-.7,.14V.58h9.29v31.68h-12.62l-10.27-23.23Z"/><path id="ph-tagline-s1-w1-i" class="cls-1" d="M121.87,.58h9.29v31.68h-9.29V.58Z"/><path id="ph-tagline-s1-w1-z2" class="cls-1" d="M90.5,.58h28.15l-14.28,23.62h13.25v8.06h-29.35l14.18-23.62h-11.95V.58Z"/><path id="ph-tagline-s1-w1-z1" class="cls-1" d="M58.87,.58h28.15l-14.28,23.62h13.25v8.06h-29.35l14.18-23.62h-11.95V.58Z"/><path id="ph-tagline-s1-w1-u" class="cls-1" d="M44.64,.58h9.29V19.9c0,2.61-.5,4.88-1.51,6.82-1.01,1.94-2.49,3.44-4.45,4.51-1.96,1.07-4.37,1.61-7.24,1.61s-5.28-.54-7.26-1.61c-1.98-1.07-3.47-2.58-4.48-4.51-1.01-1.94-1.51-4.21-1.51-6.82V.58h9.29V19.39c0,1.17,.14,2.12,.43,2.87s.72,1.29,1.31,1.64c.58,.35,1.32,.53,2.22,.53s1.61-.18,2.18-.53c.58-.35,1.01-.9,1.3-1.64,.29-.74,.43-1.7,.43-2.87V.58Z"/><path id="ph-tagline-s1-w1-b" class="cls-1" d="M0,.58H12.29c1.86,0,3.57,.26,5.14,.78,1.57,.52,2.83,1.35,3.78,2.5,.95,1.14,1.43,2.66,1.43,4.55,0,1.2-.22,2.27-.66,3.2-.44,.94-1.05,1.71-1.82,2.32-.78,.61-1.67,1.04-2.68,1.3,.93,.13,1.78,.38,2.54,.76,.77,.38,1.44,.88,2,1.52,.57,.64,1.01,1.43,1.32,2.38,.31,.94,.47,2.05,.47,3.31,0,1.81-.43,3.39-1.28,4.75-.86,1.36-2.07,2.42-3.65,3.18-1.58,.76-3.46,1.14-5.65,1.14H0V.58ZM9.31,12.48h1.25c.59,0,1.1-.07,1.52-.2,.42-.14,.75-.38,.98-.73s.35-.83,.35-1.44c0-.93-.25-1.52-.76-1.79-.5-.26-1.2-.4-2.1-.4h-1.25v4.56Zm0,12.43h1.3c.69,0,1.28-.08,1.79-.23,.5-.15,.9-.42,1.18-.82,.28-.39,.42-.94,.42-1.64,0-1.06-.3-1.75-.91-2.08-.61-.33-1.43-.49-2.47-.49h-1.3v5.26Z"/></g></g></svg>