<svg id="Layer_1" data-name="Layer 1"
	xmlns="http://www.w3.org/2000/svg" viewBox="0 0 141.73 168.55">
	<defs>
		<style>.cls-1{fill:#f47820;}</style>
	</defs>
	<path id="rg-logo-letter-r1" class="cls-1" d="M0,149.76H5.35v2.83a5.59,5.59,0,0,1,5.25-3.32,5.31,5.31,0,0,1,2.89.81l-1.71,4.6a4.65,4.65,0,0,0-2.3-.59c-2.57,0-4.13,1.55-4.13,5.35v8.62H0Z"/>
	<path id="rg-logo-letter-e1" class="cls-1" d="M27.08,164.05a6.89,6.89,0,0,0,4.77-1.77l3.21,3.21c-1.66,1.77-4.07,3.06-7.87,3.06-6.37,0-10.44-4.07-10.44-9.64a9.57,9.57,0,0,1,9.91-9.64c6.42,0,10.06,5.09,9.63,11.46h-14C22.86,162.76,24.41,164.05,27.08,164.05ZM30.67,157a3.79,3.79,0,0,0-4-3.21A4.1,4.1,0,0,0,22.37,157Z"/>
	<path id="rg-logo-letter-v" class="cls-1" d="M38.64,149.76h6L49,158.64l4.23-8.88h5.35l-9.8,18.79H48.6Z"/>
	<path id="rg-logo-letter-e2" class="cls-1" d="M71.35,164.05a6.87,6.87,0,0,0,4.76-1.77l3.21,3.21c-1.65,1.77-4.06,3.06-7.86,3.06-6.37,0-10.44-4.07-10.44-9.64a9.56,9.56,0,0,1,9.9-9.64c6.42,0,10.06,5.09,9.64,11.46h-14C67.12,162.76,68.67,164.05,71.35,164.05ZM74.94,157a3.81,3.81,0,0,0-4-3.21A4.08,4.08,0,0,0,66.64,157Z"/>
	<path id="rg-logo-letter-r2" class="cls-1" d="M85.59,149.76h5.35v2.83a5.58,5.58,0,0,1,5.24-3.32,5.25,5.25,0,0,1,2.89.81l-1.71,4.6a4.62,4.62,0,0,0-2.3-.59c-2.57,0-4.12,1.55-4.12,5.35v8.62H85.59Z"/>
	<path id="rg-logo-letter-s" class="cls-1" d="M102,164.9l3.37-3a6,6,0,0,0,4.76,2.3c1.93,0,2.68-.59,2.68-1.34s-.54-1.23-3.53-1.87c-3.8-.81-6-2.57-6-5.95s2.62-5.78,6.74-5.78a9.53,9.53,0,0,1,6.75,2.52l-2.84,3.26a5.3,5.3,0,0,0-3.75-1.49c-1.39,0-2.09.58-2.09,1.28,0,.91.7,1.23,3.75,1.82,4.12.8,6.1,2.84,6.1,5.84,0,3.69-2.62,6.05-7.65,6.05A11.09,11.09,0,0,1,102,164.9Z"/>
	<path id="rg-logo-letter-o" class="cls-1" d="M121.71,158.91c0-5.57,4.39-9.64,10-9.64s10,4.07,10,9.64-4.39,9.64-10,9.64S121.71,164.48,121.71,158.91Zm14.51,0c0-2.95-1.71-5.09-4.5-5.09s-4.49,2.14-4.49,5.09,1.71,5.09,4.49,5.09S136.22,161.85,136.22,158.91Z"/>
	<path id="rg-logo-square" class="cls-1" d="M0,0V141.73H141.73V0ZM88.63,61.77a12.08,12.08,0,0,0-6.07-1.55c-6.78,0-10.87,4.09-10.87,14.12V97.07H57.57V48.78H71.69v7.49a14.7,14.7,0,0,1,13.84-8.76,14,14,0,0,1,7.62,2.12Z"/>
</svg>